<?xml version="1.0" standalone="no"?>
<!DOCTYPE svg PUBLIC "-//W3C//DTD SVG 20010904//EN"
 "http://www.w3.org/TR/2001/REC-SVG-20010904/DTD/svg10.dtd">
<svg version="1.0" xmlns="http://www.w3.org/2000/svg"
 width="512.000000pt" height="512.000000pt" viewBox="0 0 512.000000 512.000000"
 preserveAspectRatio="xMidYMid meet">

<g transform="translate(0.000000,512.000000) scale(0.100000,-0.100000)"
fill="currentColor" stroke="none">
<path d="M2270 4834 c-803 -103 -1493 -622 -1815 -1366 -91 -211 -152 -445
-176 -677 -15 -143 -6 -461 16 -591 128 -755 599 -1385 1280 -1711 317 -151
623 -219 985 -219 372 0 679 70 1005 229 498 244 886 653 1105 1164 243 568
241 1235 -5 1803 -328 758 -1040 1285 -1857 1373 -130 15 -408 12 -538 -5z
m520 -314 c456 -57 861 -258 1181 -586 163 -168 261 -306 359 -509 309 -633
259 -1377 -130 -1959 -39 -58 -75 -106 -79 -106 -4 0 -16 10 -27 21 -10 12
-50 47 -89 79 -302 246 -666 411 -1055 480 -156 28 -476 38 -631 21 -470 -54
-913 -246 -1251 -542 -36 -33 -69 -59 -72 -59 -15 0 -163 241 -215 350 -141
298 -198 574 -188 914 9 301 59 511 188 784 122 257 292 476 524 672 259 218
623 382 955 429 41 6 86 13 100 15 57 8 352 5 430 -4z"/>
<path d="M2396 3985 c-362 -75 -632 -331 -718 -682 -31 -128 -29 -304 5 -434
66 -254 242 -471 472 -586 218 -109 488 -124 717 -40 213 77 397 244 503 456
115 230 119 532 11 766 -117 253 -334 436 -601 506 -104 27 -293 34 -389 14z"/>
</g>
</svg>
